<svg xmlns="http://www.w3.org/2000/svg" role="img" aria-label="ロゴアイコン">
  <defs>
    <symbol id="logo-icon" viewBox="0 0 500 500" fill="none">
      <ellipse cx="256" cy="256" rx="256" ry="250" fill="#FF7F50"/>
      <path d="M364.543 48.2668C368.818 41.2173 379.917 44.4456 379.886 52.6902C379.438 170.853 398.394 317.514 419.813 437.636C421.471 446.933 408.048 451.28 404.015 442.741L283.836 188.258C282.69 185.831 282.837 182.99 284.23 180.694L364.543 48.2668Z" fill="#D9D9D9"/>
      <path d="M147.457 48.2668C143.182 41.2173 132.083 44.4456 132.114 52.6902C132.562 170.853 113.606 317.514 92.1872 437.636C90.5295 446.933 103.952 451.28 107.985 442.741L228.164 188.258C229.31 185.831 229.163 182.99 227.77 180.694L147.457 48.2668Z" fill="#D9D9D9"/>
      <path d="M216.734 224.499C249.713 213.167 263.729 213.167 295.884 224.499C328.039 235.83 328.039 317.836 295.884 290.427C263.729 263.018 249.713 263.018 216.734 290.427C183.755 317.836 183.755 235.83 216.734 224.499Z" fill="#D9D9D9"/>
    </symbol>
  </defs>
</svg>

<!-- 呼び出し側 -->
<svg class="logo-icon-svg" width="24" height="24" viewBox="0 0 24 24" fill="none">
  <use class="logo-icon" href="images/logo-icon.svg#logo-icon" x="0" y="0" fill="" stroke="none"></use>
</svg>
